<svg width="1206" height="786" viewBox="0 0 1206 786" fill="none" xmlns="http://www.w3.org/2000/svg">
<g id="No Results" opacity="0.7">
<g id="circle">
<path id="Stroke 1" d="M43.2305 315.492V324.492" stroke="#D2D8DF" stroke-width="2.921" stroke-linecap="round"/>
<g id="Group 8">
<path id="Stroke 2" d="M17.9766 320.367L28.1936 327.938" stroke="#D2D8DF" stroke-width="2.921" stroke-linecap="round"/>
<path id="Stroke 4" d="M6 340.523H20.4467" stroke="#D2D8DF" stroke-width="2.921" stroke-linecap="round"/>
<path id="Stroke 6" d="M16.7695 361.032L26.9866 353.461" stroke="#D2D8DF" stroke-width="2.921" stroke-linecap="round"/>
</g>
<path id="Stroke 9" d="M43.2305 363.492V354.492" stroke="#D2D8DF" stroke-width="2.921" stroke-linecap="round"/>
<path id="Stroke 10" d="M63.1992 357.492L54.8672 351.492" stroke="#D2D8DF" stroke-width="2.921" stroke-linecap="round"/>
<path id="Stroke 11" d="M79.0073 342.492H66.5039" stroke="#D2D8DF" stroke-width="2.921" stroke-linecap="round"/>
<path id="Stroke 12" d="M70.957 321.492L62.625 327.492" stroke="#D2D8DF" stroke-width="2.921" stroke-linecap="round"/>
<path id="Stroke 13" d="M668.442 27.9844V33.9844" stroke="#D2D8DF" stroke-width="2.921" stroke-linecap="round"/>
<path id="Stroke 15" d="M643.409 45.9844H651.741" stroke="#D2D8DF" stroke-width="2.921" stroke-linecap="round"/>
<path id="Stroke 16" d="M668.442 63.9844V57.9844" stroke="#D2D8DF" stroke-width="2.921" stroke-linecap="round"/>
<path id="Stroke 17" d="M689.219 45.9844H680.887" stroke="#D2D8DF" stroke-width="2.921" stroke-linecap="round"/>
<path id="Stroke 18" d="M247.947 234.984V243.984" stroke="#D2D8DF" stroke-width="2.921" stroke-linecap="round"/>
<path id="Stroke 19" d="M210.4 261.984H222.903" stroke="#D2D8DF" stroke-width="2.921" stroke-linecap="round"/>
<path id="Stroke 20" d="M247.947 285.984V276.984" stroke="#D2D8DF" stroke-width="2.921" stroke-linecap="round"/>
<path id="Stroke 21" d="M281.298 261.984H268.794" stroke="#D2D8DF" stroke-width="2.921" stroke-linecap="round"/>
<g id="Group 42">
<path id="Stroke 22" d="M1061.58 502.078C1071.54 502.078 1079.61 507.894 1079.61 515.065C1079.61 522.239 1071.54 528.053 1061.58 528.053C1051.61 528.053 1043.54 522.239 1043.54 515.065" stroke="#D2D8DF" stroke-width="2.921" stroke-linecap="round"/>
<path id="Fill 26" fill-rule="evenodd" clip-rule="evenodd" d="M1144.14 384.275C1154.85 381.87 1171.27 372.441 1175.07 362.297C1178.52 371.264 1192.96 381.87 1206 382.672C1191.33 386.412 1177.3 397.522 1175.07 406.25C1173.56 397.354 1154.15 385.571 1144.14 384.275Z" fill="#EBECEE"/>
<path id="Fill 28" fill-rule="evenodd" clip-rule="evenodd" d="M44.6602 498.089C50.0171 496.887 58.2224 492.174 60.1224 487.102C61.8456 491.583 69.0672 496.887 75.5847 497.289C68.2499 499.157 61.237 504.713 60.1224 509.077C59.3652 504.629 49.6633 498.736 44.6602 498.089Z" fill="#EBECEE"/>
<path id="Fill 30" fill-rule="evenodd" clip-rule="evenodd" d="M144.06 80.7579C144.06 86.3218 137.797 90.8284 130.073 90.8284C122.345 90.8284 116.086 86.3218 116.086 80.7579C116.086 75.1966 122.345 70.6875 130.073 70.6875C137.797 70.6875 144.06 75.1966 144.06 80.7579Z" fill="#D1D8DF"/>
<path id="Fill 32" fill-rule="evenodd" clip-rule="evenodd" d="M1078.11 107.816C1078.11 117.112 1067.64 124.648 1054.73 124.648C1041.82 124.648 1031.35 117.112 1031.35 107.816C1031.35 98.52 1041.82 90.9844 1054.73 90.9844C1067.64 90.9844 1078.11 98.52 1078.11 107.816Z" fill="#EBECEE"/>
<path id="Fill 34" fill-rule="evenodd" clip-rule="evenodd" d="M1172 172.844C1172 180.219 1163.7 186.196 1153.46 186.196C1143.22 186.196 1134.92 180.219 1134.92 172.844C1134.92 165.469 1143.22 159.492 1153.46 159.492C1163.7 159.492 1172 165.469 1172 172.844Z" fill="#EBECEE"/>
<path id="Stroke 36" fill-rule="evenodd" clip-rule="evenodd" d="M405.504 685.784C405.504 690.434 400.271 694.201 393.813 694.201C387.36 694.201 382.126 690.434 382.126 685.784C382.126 681.135 387.36 677.367 393.813 677.367C400.271 677.367 405.504 681.135 405.504 685.784Z" stroke="#D2D8DF" stroke-width="2.921" stroke-linecap="round"/>
<path id="Stroke 38" fill-rule="evenodd" clip-rule="evenodd" d="M398.499 16.0704C398.499 21.6343 392.236 26.1409 384.512 26.1409C376.788 26.1409 370.525 21.6343 370.525 16.0704C370.525 10.5091 376.788 6 384.512 6C392.236 6 398.499 10.5091 398.499 16.0704Z" stroke="#D2D8DF" stroke-width="2.921" stroke-linecap="round"/>
<path id="Stroke 40" fill-rule="evenodd" clip-rule="evenodd" d="M755.364 778.996C746.427 781.444 736.424 778.211 733.024 771.779C729.623 765.343 734.11 758.139 743.051 755.693C751.985 753.245 761.988 756.475 765.388 762.911C768.792 769.346 764.302 776.548 755.364 778.996Z" stroke="#D2D8DF" stroke-width="2.921" stroke-linecap="round"/>
</g>
</g>
<g id="search">
<g id="documents">
<path id="Fill 1" fill-rule="evenodd" clip-rule="evenodd" d="M734.263 618.984H482.407C464.68 618.984 450.17 604.769 450.17 587.395V236.567C450.17 219.193 464.68 204.984 482.407 204.984H734.263C751.997 204.984 766.507 219.193 766.507 236.567V587.395C766.507 604.769 751.997 618.984 734.263 618.984Z" fill="#9EC9FA"/>
<path id="Fill 3" fill-rule="evenodd" clip-rule="evenodd" d="M712.783 633.984H460.927C443.2 633.984 428.689 619.769 428.689 602.395V251.567C428.689 234.193 443.2 219.984 460.927 219.984H712.783C730.517 219.984 745.027 234.193 745.027 251.567V602.395C745.027 619.769 730.517 633.984 712.783 633.984Z" fill="#E7F1FE"/>
<path id="Fill 5" fill-rule="evenodd" clip-rule="evenodd" d="M691.866 645.817H439.489C421.726 645.817 407.186 631.66 407.186 614.358V264.983C407.186 247.681 421.726 233.531 439.489 233.531H691.866C709.636 233.531 724.177 247.681 724.177 264.983V614.358C724.177 631.66 709.636 645.817 691.866 645.817Z" fill="#6EAEF7"/>
<path id="Fill 8" fill-rule="evenodd" clip-rule="evenodd" d="M691.866 645.817H439.489C421.726 645.817 407.186 631.66 407.186 614.358V264.983C407.186 247.681 421.726 233.531 439.489 233.531H691.866C709.636 233.531 724.177 247.681 724.177 264.983V614.358C724.177 631.66 709.636 645.817 691.866 645.817Z" fill="#E7F1FE"/>
<path id="Fill 11" fill-rule="evenodd" clip-rule="evenodd" d="M655.482 339.984H469.074C463.75 339.984 459.393 335.935 459.393 330.988C459.393 326.034 463.75 321.984 469.074 321.984H655.482C660.805 321.984 665.162 326.034 665.162 330.988C665.162 335.935 660.805 339.984 655.482 339.984Z" fill="#9EC9FA"/>
<path id="Fill 13" fill-rule="evenodd" clip-rule="evenodd" d="M655.482 393.984H469.074C463.75 393.984 459.393 389.935 459.393 384.988C459.393 380.034 463.75 375.984 469.074 375.984H655.482C660.805 375.984 665.162 380.034 665.162 384.988C665.162 389.935 660.805 393.984 655.482 393.984Z" fill="#9EC9FA"/>
<path id="Fill 15" fill-rule="evenodd" clip-rule="evenodd" d="M655.482 447.984H469.074C463.75 447.984 459.393 443.935 459.393 438.988C459.393 434.041 463.75 429.984 469.074 429.984H655.482C660.805 429.984 665.162 434.041 665.162 438.988C665.162 443.935 660.805 447.984 655.482 447.984Z" fill="#9EC9FA"/>
<path id="Fill 17" fill-rule="evenodd" clip-rule="evenodd" d="M655.482 501.984H469.074C463.75 501.984 459.393 497.935 459.393 492.988C459.393 488.034 463.75 483.984 469.074 483.984H655.482C660.805 483.984 665.162 488.034 665.162 492.988C665.162 497.935 660.805 501.984 655.482 501.984Z" fill="#9EC9FA"/>
<path id="Fill 19" fill-rule="evenodd" clip-rule="evenodd" d="M566.376 555.984H469.115C463.769 555.984 459.393 551.935 459.393 546.988C459.393 542.034 463.769 537.984 469.115 537.984H566.376C571.722 537.984 576.098 542.034 576.098 546.988C576.098 551.935 571.722 555.984 566.376 555.984Z" fill="#9EC9FA"/>
</g>
</g>
</g>
</svg>
