<svg width="810" height="633" viewBox="0 0 810 633" fill="none" xmlns="http://www.w3.org/2000/svg">
<g id="No Chat History">
<path id="Fill 1" fill-rule="evenodd" clip-rule="evenodd" d="M438.512 1.5C364.462 1.5 296.402 27.1687 242.661 70.1146H155.806C144.521 70.1146 135.289 79.3776 135.289 90.699C135.289 102.02 144.521 111.283 155.806 111.283H200.009H212.962C224.246 111.283 233.479 120.546 233.479 131.868C233.479 137.522 231.167 142.681 227.447 146.4C223.74 150.133 218.597 152.452 212.962 152.452H185.327H170.068H95.6224C84.3381 152.452 75.1055 161.715 75.1055 173.036C75.1055 184.358 84.3381 193.621 95.6224 193.621H148.917C132.829 231.554 123.918 273.292 123.918 317.127C123.918 333.032 125.094 348.662 127.351 363.936C128.295 370.317 129.43 376.643 130.757 382.901C169.466 376.959 210.527 372.183 253.394 368.698L256.622 371.648L259.658 368.204C311.156 364.183 365.211 362.042 420.963 362.042C539.414 362.042 650.261 371.703 745.035 388.5C748.688 372.609 751.15 356.265 752.312 339.55C752.846 332.14 753.105 324.661 753.105 317.127C753.105 142.805 612.263 1.5 438.512 1.5Z" fill="#4E5992"/>
<path id="Fill 3" fill-rule="evenodd" clip-rule="evenodd" d="M33.3224 151.5H20.8886C9.45786 151.5 0.105469 160.95 0.105469 172.5C0.105469 184.05 9.45786 193.5 20.8886 193.5H33.3224C44.7531 193.5 54.1055 184.05 54.1055 172.5C54.1055 160.95 44.7531 151.5 33.3224 151.5Z" fill="#4E5992"/>
<g id="Group 7">
<mask id="mask0_1246_95418" style="mask-type:luminance" maskUnits="userSpaceOnUse" x="130" y="362" width="680" height="270">
<path id="Clip 6" fill-rule="evenodd" clip-rule="evenodd" d="M809.9 362.496V631.501H470.118H130.336V362.496H809.9Z" fill="white"/>
</mask>
<g mask="url(#mask0_1246_95418)">
<path id="Fill 5" fill-rule="evenodd" clip-rule="evenodd" d="M809.9 466.501C809.9 477.751 800.67 486.955 789.388 486.955H658.369C652.735 486.955 647.595 489.26 643.889 492.969C640.17 496.664 637.857 501.792 637.857 507.41C637.857 518.66 647.088 527.864 658.369 527.864H682.712C688.344 527.864 693.487 530.169 697.193 533.878C700.913 537.573 703.224 542.701 703.224 548.319C703.224 559.569 693.993 568.773 682.712 568.773H626.741C574.161 608.155 508.824 631.501 438.017 631.501C286.788 631.501 160.489 525.069 130.336 383.223C169.035 377.319 210.087 372.573 252.943 369.11L256.169 372.042L259.206 368.619C310.69 364.623 364.734 362.496 420.472 362.496C538.894 362.496 649.713 372.096 744.465 388.787C739.858 408.669 733.349 427.814 725.144 446.046H789.388C795.036 446.046 800.15 448.351 803.87 452.06C807.589 455.755 809.9 460.882 809.9 466.501Z" fill="#ABB4CA"/>
</g>
</g>
<path id="Fill 8" fill-rule="evenodd" clip-rule="evenodd" d="M750.105 338.617C748.944 355.651 746.486 372.306 742.838 388.5C648.189 371.383 537.49 361.539 419.196 361.539C363.518 361.539 309.535 363.72 258.105 367.817L293.771 326.493L349.253 362.699L424.359 341.961L553.564 361.539L609.655 341.961L623.861 361.539L657.755 336.381L689.428 365.412L739.382 325.5L750.105 338.617Z" fill="#7F8DDD"/>
<path id="Fill 10" fill-rule="evenodd" clip-rule="evenodd" d="M565.966 356.7C580.173 336.048 588.312 311.557 588.101 285.348C587.521 212.449 522.579 153.871 443.051 154.505C363.523 155.141 299.527 214.754 300.109 287.652C300.692 360.549 365.634 419.129 445.16 418.495C473.574 418.268 500.003 410.508 522.215 397.306L581.631 411.296L565.966 356.7Z" fill="#DADFF9"/>
<path id="Fill 12" fill-rule="evenodd" clip-rule="evenodd" d="M402.105 283.381C402.171 291.664 395.509 298.433 387.226 298.499C378.94 298.567 372.171 291.903 372.106 283.62C372.04 275.336 378.701 268.568 386.985 268.5C395.268 268.434 402.038 275.097 402.105 283.381Z" fill="#8387B7"/>
<path id="Fill 14" fill-rule="evenodd" clip-rule="evenodd" d="M456.105 283.38C456.171 291.664 449.509 298.434 441.224 298.5C432.94 298.566 426.171 291.903 426.106 283.62C426.039 275.336 432.701 268.566 440.985 268.5C449.268 268.434 456.038 275.097 456.105 283.38Z" fill="#8387B7"/>
<path id="Fill 16" fill-rule="evenodd" clip-rule="evenodd" d="M510.105 283.38C510.171 291.663 503.509 298.432 495.224 298.5C486.94 298.566 480.171 291.903 480.106 283.619C480.039 275.334 486.701 268.567 494.985 268.501C503.268 268.433 510.038 275.097 510.105 283.38Z" fill="#8387B7"/>
<path id="Fill 18" fill-rule="evenodd" clip-rule="evenodd" d="M258.105 367.5L255.196 370.5L252.105 367.93C254.095 367.775 256.101 367.631 258.105 367.5Z" fill="#4E5992"/>
<path id="Fill 20" fill-rule="evenodd" clip-rule="evenodd" d="M285.105 388.501C285.105 398.027 288.152 406.896 293.388 414.362L287.831 434.279L309.469 429.015C317.603 433.747 327.25 436.5 337.605 436.5C366.601 436.5 390.105 415.01 390.105 388.501C390.105 361.99 366.601 340.5 337.605 340.5C308.61 340.5 285.105 361.99 285.105 388.501Z" fill="#074182"/>
<path id="Fill 22" fill-rule="evenodd" clip-rule="evenodd" d="M351.105 388.501C351.105 391.814 353.79 394.5 357.105 394.5C360.418 394.5 363.105 391.814 363.105 388.501C363.105 385.188 360.418 382.5 357.105 382.5C353.79 382.5 351.105 385.188 351.105 388.501Z" fill="white"/>
<path id="Fill 24" fill-rule="evenodd" clip-rule="evenodd" d="M333.105 388.501C333.105 391.814 335.791 394.5 339.105 394.5C342.418 394.5 345.105 391.814 345.105 388.501C345.105 385.188 342.418 382.5 339.105 382.5C335.791 382.5 333.105 385.188 333.105 388.501Z" fill="white"/>
<path id="Fill 26" fill-rule="evenodd" clip-rule="evenodd" d="M312.105 388.501C312.105 391.814 314.791 394.5 318.105 394.5C321.418 394.5 324.105 391.814 324.105 388.501C324.105 385.188 321.418 382.5 318.105 382.5C314.791 382.5 312.105 385.188 312.105 388.501Z" fill="white"/>
<path id="Fill 28" fill-rule="evenodd" clip-rule="evenodd" d="M252.105 368.274C209.253 371.765 168.206 376.548 129.51 382.5C128.184 376.232 127.049 369.896 126.105 363.504L192.434 313.5L252.105 368.274Z" fill="#7F8DDD"/>
<path id="Fill 30" fill-rule="evenodd" clip-rule="evenodd" d="M552.105 471C552.105 476.799 499.722 481.5 435.105 481.5C370.487 481.5 318.105 476.799 318.105 471C318.105 465.203 370.487 460.5 435.105 460.5C499.722 460.5 552.105 465.203 552.105 471Z" fill="#BFC7EE"/>
<path id="Fill 32" fill-rule="evenodd" clip-rule="evenodd" d="M744.105 568.5C732.555 568.5 723.105 559.05 723.105 547.5C723.105 535.95 732.555 526.5 744.105 526.5C755.655 526.5 765.105 535.95 765.105 547.5C765.105 559.05 755.655 568.5 744.105 568.5Z" fill="#ADB4DB"/>
</g>
</svg>
