<svg width="268" height="152" viewBox="0 0 268 152" fill="none" xmlns="http://www.w3.org/2000/svg">
<g clip-path="url(#clip0_2083_22695)">
<rect width="268" height="152" rx="16" fill="#D9E0E5"/>
<g clip-path="url(#clip1_2083_22695)">
<path d="M112.984 103L112.924 103.06L112.861 103H107.476C106.686 102.999 105.929 102.685 105.371 102.126C104.813 101.568 104.5 100.811 104.5 100.021V51.979C104.505 51.1911 104.821 50.4371 105.378 49.8797C105.934 49.3223 106.688 49.0063 107.476 49H161.524C163.168 49 164.5 50.335 164.5 51.979V100.021C164.495 100.809 164.179 101.563 163.622 102.12C163.066 102.678 162.312 102.994 161.524 103H112.984ZM158.5 85V55H110.5V97L140.5 67L158.5 85ZM158.5 93.484L140.5 75.484L118.984 97H158.5V93.484ZM122.5 73C120.909 73 119.383 72.3679 118.257 71.2426C117.132 70.1174 116.5 68.5913 116.5 67C116.5 65.4087 117.132 63.8826 118.257 62.7574C119.383 61.6321 120.909 61 122.5 61C124.091 61 125.617 61.6321 126.743 62.7574C127.868 63.8826 128.5 65.4087 128.5 67C128.5 68.5913 127.868 70.1174 126.743 71.2426C125.617 72.3679 124.091 73 122.5 73Z" fill="#ABB0BD"/>
</g>
</g>
<defs>
<clipPath id="clip0_2083_22695">
<rect width="268" height="152" rx="16" fill="white"/>
</clipPath>
<clipPath id="clip1_2083_22695">
<rect width="72" height="72" fill="white" transform="translate(98.5 40)"/>
</clipPath>
</defs>
</svg>
