<svg width="32" height="32" viewBox="0 0 32 32" fill="none" xmlns="http://www.w3.org/2000/svg">
<path d="M7.75347 12.2906C7.47363 11.9142 7.76346 11.3828 8.23142 11.4143L14.8622 11.8597C15.053 11.8726 15.237 11.7858 15.3476 11.6299L19.1945 6.21071C19.466 5.82826 20.0611 5.93963 20.1758 6.39441L21.8009 12.8384C21.8477 13.0237 21.9867 13.1714 22.1691 13.2284L28.5121 15.2126C28.9598 15.3526 29.0371 15.9529 28.64 16.2025L23.0141 19.7398C22.8523 19.8415 22.7553 20.0199 22.7574 20.211L22.8301 26.8563C22.8353 27.3253 22.2884 27.5855 21.9283 27.285L16.8262 23.0261C16.6794 22.9036 16.4802 22.8667 16.299 22.9278L10.0011 25.0503C9.55664 25.2001 9.14001 24.7603 9.31453 24.325L11.7872 18.1569C11.8584 17.9795 11.8327 17.7777 11.7187 17.6243L7.75347 12.2906Z" stroke="#0A60C2" stroke-width="2" stroke-linecap="round" stroke-linejoin="round"/>
<path d="M10.6665 5.08203C10.5284 5.08203 10.4165 5.19396 10.4165 5.33203C10.4165 5.4701 10.5284 5.58203 10.6665 5.58203V5.08203ZM19.9998 5.33203V5.08203H10.6665V5.33203V5.58203H19.9998V5.33203Z" fill="#0A60C2"/>
<path d="M1.3335 11.75C1.19542 11.75 1.0835 11.8619 1.0835 12C1.0835 12.1381 1.19542 12.25 1.3335 12.25L1.3335 11.75ZM8.00016 12L8.00016 11.75L1.3335 11.75L1.3335 12L1.3335 12.25L8.00016 12.25L8.00016 12Z" fill="#0A60C2"/>
<path d="M4 17.082C3.86193 17.082 3.75 17.194 3.75 17.332C3.75 17.4701 3.86193 17.582 4 17.582L4 17.082ZM10.6667 17.332L10.6667 17.082L4 17.082L4 17.332L4 17.582L10.6667 17.582L10.6667 17.332Z" fill="#0A60C2"/>
<path d="M5.3335 22.418C5.19542 22.418 5.0835 22.5299 5.0835 22.668C5.0835 22.806 5.19542 22.918 5.3335 22.918L5.3335 22.418ZM10.6668 22.668L10.6668 22.418L5.3335 22.418L5.3335 22.668L5.3335 22.918L10.6668 22.918L10.6668 22.668Z" fill="#0A60C2"/>
<path d="M12.6665 7.75C12.5284 7.75 12.4165 7.86193 12.4165 8C12.4165 8.13807 12.5284 8.25 12.6665 8.25V7.75ZM17.3332 8V7.75H12.6665V8V8.25H17.3332V8Z" fill="#0A60C2"/>
<path d="M4 14.418C3.86193 14.418 3.75 14.5299 3.75 14.668C3.75 14.806 3.86193 14.918 4 14.918V14.418ZM8.66667 14.668V14.418H4V14.668V14.918H8.66667V14.668Z" fill="#0A60C2"/>
<path d="M6.6665 19.75C6.52843 19.75 6.4165 19.8619 6.4165 20C6.4165 20.1381 6.52843 20.25 6.6665 20.25V19.75ZM11.3332 20V19.75H6.6665V20V20.25H11.3332V20Z" fill="#0A60C2"/>
<path d="M4 25.082C3.86193 25.082 3.75 25.194 3.75 25.332C3.75 25.4701 3.86193 25.582 4 25.582V25.082ZM8.66667 25.332V25.082H4V25.332V25.582H8.66667V25.332Z" fill="#0A60C2"/>
</svg>
