<svg width="50" height="50" viewBox="0 0 50 50" fill="none" xmlns="http://www.w3.org/2000/svg">
<path d="M12.1147 19.2041C11.6775 18.616 12.1303 17.7856 12.8615 17.8348L23.2222 18.5309C23.5202 18.5509 23.8077 18.4152 23.9806 18.1717L29.9914 9.70424C30.4156 9.10665 31.3455 9.28068 31.5247 9.99127L34.0639 20.06C34.137 20.3496 34.3542 20.5802 34.6392 20.6694L44.5502 23.7696C45.2496 23.9884 45.3704 24.9264 44.75 25.3165L35.9595 30.8434C35.7066 31.0024 35.5551 31.2811 35.5584 31.5797L35.672 41.9629C35.6801 42.6957 34.8256 43.1023 34.263 42.6327L26.2908 35.9783C26.0615 35.7869 25.7502 35.7293 25.4672 35.8247L15.6266 39.1411C14.9322 39.3752 14.2812 38.688 14.5539 38.0078L18.4175 28.3701C18.5286 28.0929 18.4886 27.7776 18.3104 27.5379L12.1147 19.2041Z" stroke="#0E1825" stroke-width="2" stroke-linecap="round" stroke-linejoin="round"/>
<path d="M16.6665 8.08203C16.5284 8.08203 16.4165 8.19396 16.4165 8.33203C16.4165 8.4701 16.5284 8.58203 16.6665 8.58203V8.08203ZM31.2498 8.33203V8.08203H16.6665V8.33203V8.58203H31.2498V8.33203Z" fill="#4F4F4F"/>
<path d="M2.0835 18.5C1.94542 18.5 1.8335 18.6119 1.8335 18.75C1.8335 18.8881 1.94542 19 2.0835 19L2.0835 18.5ZM12.5002 18.75L12.5002 18.5L2.0835 18.5L2.0835 18.75L2.0835 19L12.5002 19L12.5002 18.75Z" fill="#4F4F4F"/>
<path d="M6.25 26.832C6.11193 26.832 6 26.944 6 27.082C6 27.2201 6.11193 27.332 6.25 27.332L6.25 26.832ZM16.6667 27.082L16.6667 26.832L6.25 26.832L6.25 27.082L6.25 27.332L16.6667 27.332L16.6667 27.082Z" fill="#4F4F4F"/>
<path d="M8.3335 35.168C8.19542 35.168 8.0835 35.2799 8.0835 35.418C8.0835 35.556 8.19542 35.668 8.3335 35.668L8.3335 35.168ZM16.6668 35.418L16.6668 35.168L8.3335 35.168L8.3335 35.418L8.3335 35.668L16.6668 35.668L16.6668 35.418Z" fill="#4F4F4F"/>
<path d="M19.7915 12.25C19.6534 12.25 19.5415 12.3619 19.5415 12.5C19.5415 12.6381 19.6534 12.75 19.7915 12.75V12.25ZM27.0832 12.5V12.25H19.7915V12.5V12.75H27.0832V12.5Z" fill="#4F4F4F"/>
<path d="M6.25 22.668C6.11193 22.668 6 22.7799 6 22.918C6 23.056 6.11193 23.168 6.25 23.168V22.668ZM13.5417 22.918V22.668H6.25V22.918V23.168H13.5417V22.918Z" fill="#4F4F4F"/>
<path d="M10.4165 31C10.2784 31 10.1665 31.1119 10.1665 31.25C10.1665 31.3881 10.2784 31.5 10.4165 31.5V31ZM17.7082 31.25V31H10.4165V31.25V31.5H17.7082V31.25Z" fill="#4F4F4F"/>
<path d="M6.25 39.332C6.11193 39.332 6 39.444 6 39.582C6 39.7201 6.11193 39.832 6.25 39.832V39.332ZM13.5417 39.582V39.332H6.25V39.582V39.832H13.5417V39.582Z" fill="#4F4F4F"/>
</svg>
